<?xml version="1.0" standalone="no"?>
<svg xmlns="http://www.w3.org/2000/svg" height="923pt" preserveAspectRatio="xMidYMid meet" viewBox="0 0 1920 923" width="1920pt">
  <path d="m9006 9214c-130-41-232-160-251-296l-7-47-632-4c-691-4-664-2-864-68-406-135-743-473-875-879l-24-75-2547-3-2546-2-34 38c-19 21-59 51-88 68l-53 29-411 3c-395 3-413 2-466-18-74-27-140-87-175-158l-28-57v-235c0-207 2-241 19-284 23-60 83-128 145-164l46-27h440c432 0 441 0 480 22 22 11 53 35 69 52l30 31h2562 2561l28-77c15-43 52-126 82-184 206-399 604-676 1052-733l95-12-113-27c-361-89-705-299-951-580l-85-97h-825c-458 0-885-5-960-10-947-71-1782-603-2253-1435-152-269-265-596-317-915-27-169-40-370-40-637v-223h380 379l5-32c48-312 114-538 227-773 346-720 1026-1235 1810-1369 214-37 233-37 5804-34 5193 3 5465 4 5570 21 719 118 1311 496 1710 1092 92 137 225 412 279 577 43 128 106 401 106 460 0 62-28 58 437 58h426l-7 302c-8 318-22 492-57 661-71 354-216 702-417 1002-458 681-1143 1109-1972 1231-98 14-230 18-885 21l-769 5-47 48c-61 64-156 125-238 153l-66 22-1117 3-1118 3v239 240h40c110 0 357 68 492 136 380 191 634 510 739 928 30 117 37 376 15 516-91 575-562 1040-1151 1135-62 10-170 15-352 15h-261l-7 49c-16 114-106 234-212 284l-48 22-1355 2c-1182 2-1361 0-1404-13z" transform="matrix(.1 0 0 -.1 0 923)" fill="#F44545" stroke="none" stroke-width="2" vector-effect="non-scaling-stroke"/>
</svg>
